<?xml version="1.0" encoding="UTF-8"?>
<svg version="1.1" xmlns="http://www.w3.org/2000/svg" width="512" height="512">
<path d="M0 0 C5.55061225 3.3689803 9.39557043 7.42482687 13.05859375 12.73828125 C13.48599854 13.35131104 13.91340332 13.96434082 14.35375977 14.59594727 C30.83633522 38.52992525 51.34297576 73.53494615 50.24609375 103.36328125 C51.81230469 103.49283203 51.81230469 103.49283203 53.41015625 103.625 C89.86850104 106.96501682 123.58077863 120.02260557 153.24609375 141.36328125 C153.83148926 141.77900391 154.41688477 142.19472656 155.02001953 142.62304688 C199.71648326 174.61079427 229.02051649 224.53795011 238.24609375 278.36328125 C239.84672606 288.99462014 240.54191208 299.35096472 240.52075195 310.11010742 C240.52511498 311.60859934 240.53030332 313.10708905 240.53623962 314.60557556 C240.54946337 318.6219276 240.55022765 322.63818462 240.54767632 326.65455413 C240.54659617 330.02672953 240.55151583 333.39888651 240.55628175 336.7710579 C240.56731722 344.73141957 240.56784676 352.69173402 240.56176758 360.65209961 C240.55571904 368.8285697 240.56807483 377.0048681 240.58933765 385.18130893 C240.60701186 392.24081068 240.61294626 399.30025805 240.6096999 406.35978109 C240.60789774 410.55912263 240.61041644 414.75834136 240.62441444 418.95766258 C240.63708533 422.90511617 240.63496231 426.8523032 240.62200356 430.79975319 C240.61965905 432.23754598 240.62229495 433.67535811 240.63062668 435.11312866 C240.69614122 447.30920125 239.28602718 458.7359112 233.49609375 469.61328125 C232.97112305 470.62648438 232.97112305 470.62648438 232.43554688 471.66015625 C229.57628154 477.03743645 226.34773537 481.84421592 222.24609375 486.36328125 C221.6428125 487.04648437 221.03953125 487.7296875 220.41796875 488.43359375 C212.64407981 496.74470266 202.79948737 502.29396422 192.24609375 506.36328125 C191.4159375 506.68425781 190.58578125 507.00523437 189.73046875 507.3359375 C172.507945 512.74945008 151.29623274 510.72145091 135.37109375 502.55078125 C120.52029585 493.74135823 107.27746771 480.25251644 102.24609375 463.36328125 C101.00859375 463.11578125 99.77109375 462.86828125 98.49609375 462.61328125 C97.8 462.4740625 97.10390625 462.33484375 96.38671875 462.19140625 C94.10175421 462.17861404 94.10175421 462.17861404 92.2109375 463.9375 C89.91010288 466.77809304 88.27804087 469.69956495 86.55859375 472.92578125 C78.01771531 488.28295691 66.04252052 500.37498997 49.24609375 506.36328125 C48.41851562 506.68039062 47.5909375 506.9975 46.73828125 507.32421875 C29.51261469 512.79826439 8.87780951 510.48140548 -7.16796875 502.734375 C-23.15894267 494.25577704 -33.65402433 482.02807763 -41.73461914 466.12695312 C-42.0980542 465.41216797 -42.46148926 464.69738281 -42.8359375 463.9609375 C-43.15796143 463.31648682 -43.47998535 462.67203613 -43.81176758 462.00805664 C-44.76482674 460.17761714 -44.76482674 460.17761714 -46.75390625 458.36328125 C-50.08203949 457.52794243 -50.08203949 457.52794243 -53.75390625 458.36328125 C-56.28050213 460.63653282 -57.92481744 463.51987956 -59.75390625 466.36328125 C-73.21796592 486.02852969 -89.15476718 503.89836827 -113.57421875 508.9609375 C-132.1540242 511.31194482 -150.35736538 507.51878524 -165.46337891 496.06738281 C-180.11643535 484.08363131 -191.39622846 467.43881548 -193.75390625 448.36328125 C-194.80941205 433.85886716 -192.86947065 420.37441765 -189.76489258 406.23690796 C-188.56590665 400.76776572 -187.44006708 395.28341413 -186.3046875 389.80078125 C-186.07999786 388.72426804 -185.85530823 387.64775482 -185.62380981 386.53862 C-180.22420795 360.51356699 -177.03656674 334.44424939 -176.14086914 307.88671875 C-175.05731239 277.53811874 -168.87957328 248.821649 -155.75390625 221.36328125 C-155.19345533 220.1512982 -154.63353005 218.93907189 -154.07421875 217.7265625 C-141.80937998 191.99387445 -121.74118856 165.50727357 -98.75390625 148.36328125 C-98.09390625 148.36328125 -97.43390625 148.36328125 -96.75390625 148.36328125 C-96.75390625 147.70328125 -96.75390625 147.04328125 -96.75390625 146.36328125 C-103.99947756 144.86206355 -111.26583127 143.56605797 -118.56640625 142.36328125 C-120.14808594 142.09837891 -120.14808594 142.09837891 -121.76171875 141.828125 C-126.14216246 141.09895126 -130.51765987 140.37180129 -134.921875 139.80078125 C-144.263927 138.57415778 -150.90481677 136.06016874 -157.75390625 129.36328125 C-163.78619848 121.44276458 -165.80436836 113.24294385 -164.75390625 103.36328125 C-162.40739499 93.0358215 -156.96420356 86.03176787 -148.13671875 80.37109375 C-141.35544234 77.50294733 -134.76497793 77.0853535 -127.50390625 77.61328125 C-126.68559326 77.66411865 -125.86728027 77.71495605 -125.02416992 77.76733398 C-118.19565806 78.23344629 -111.48651151 79.1182932 -104.75390625 80.36328125 C-104.75390625 79.70328125 -104.75390625 79.04328125 -104.75390625 78.36328125 C-105.28757812 78.21632813 -105.82125 78.069375 -106.37109375 77.91796875 C-116.34093984 74.9166656 -124.37354015 70.50277731 -129.75390625 61.36328125 C-134.3972837 52.39675927 -134.51767957 43.95445806 -131.75390625 34.36328125 C-128.88423345 28.4640158 -125.03167495 24.18124158 -119.75390625 20.36328125 C-118.99078125 19.80640625 -118.22765625 19.24953125 -117.44140625 18.67578125 C-108.34598352 14.23383061 -99.22783371 14.38890868 -89.75390625 17.36328125 C-73.63469046 22.96431809 -59.1925338 31.37824599 -44.75390625 40.36328125 C-44.62731828 37.530697 -44.62731828 37.530697 -45.234375 35.52734375 C-47.24326851 27.15947152 -46.05925716 18.75252115 -41.75390625 11.36328125 C-31.91411764 -2.46031558 -15.69127225 -6.79675429 0 0 Z " fill="#EAEBEB" transform="translate(232.75390625,2.63671875)"/>
<path d="M0 0 C-0.88300781 0.73863281 -1.76601562 1.47726563 -2.67578125 2.23828125 C-44.31459403 37.31635672 -65.22597326 86.27506498 -71 140 C-71.0942627 140.84159668 -71.18852539 141.68319336 -71.28564453 142.55029297 C-74.22480289 172.42034423 -72.31060963 202.94982216 -67.46484375 232.47265625 C-67.32979431 233.29668945 -67.19474487 234.12072266 -67.05560303 234.96972656 C-66.38701873 239.02693228 -65.70178585 243.07998255 -64.98193359 247.12841797 C-60.98369023 270.0325857 -64.88280118 291.38706915 -69.52368164 313.85205078 C-69.67772461 314.59881577 -69.83176758 315.34558075 -69.99047852 316.11497498 C-70.28150178 317.5206256 -70.57471794 318.92582484 -70.87060547 320.33045959 C-72.44544232 327.90319167 -73.20347792 335.16396557 -73.25 342.875 C-73.270625 343.72191406 -73.29125 344.56882812 -73.3125 345.44140625 C-73.35949257 353.1129428 -72.01795734 360.79859199 -66.6484375 366.65625 C-61.62366839 370.75227032 -55.16979203 373.21400757 -49 375 C-61.13908475 387.92225151 -76.19670322 395.62540365 -93.98925781 396.33032227 C-112.57492588 396.70806296 -129.61938436 389.9602899 -142.99584961 377.12744141 C-158.18091147 361.9605777 -165.27955568 344.19039878 -165.366745 322.83137512 C-165.22077957 312.59020001 -163.20073257 302.84520996 -161.01098633 292.87362671 C-159.8120004 287.40448447 -158.68616083 281.92013288 -157.55078125 276.4375 C-157.32609161 275.36098679 -157.10140198 274.28447357 -156.86990356 273.17533875 C-151.4703017 247.15028574 -148.28266049 221.08096814 -147.38696289 194.5234375 C-146.30340614 164.17483749 -140.12566703 135.45836775 -127 108 C-126.43954908 106.78801695 -125.8796238 105.57579064 -125.3203125 104.36328125 C-115.78048491 84.34790135 -102.28491651 66.92512243 -87 51 C-85.80697266 49.74509766 -85.80697266 49.74509766 -84.58984375 48.46484375 C-72.80509252 36.34754222 -18.3274711 -9.16373555 0 0 Z " fill="#D9D8D9" transform="translate(204,116)"/>
<path d="M0 0 C5.55061225 3.3689803 9.39557043 7.42482687 13.05859375 12.73828125 C13.48599854 13.35131104 13.91340332 13.96434082 14.35375977 14.59594727 C30.83633522 38.52992525 51.34297576 73.53494615 50.24609375 103.36328125 C49.30628662 103.37786377 48.36647949 103.39244629 47.39819336 103.4074707 C-0.17579436 104.20247702 -50.83637601 111.32745183 -88.83666992 143.10498047 C-93.98341657 147.39834545 -93.98341657 147.39834545 -98.015625 147.21484375 C-99.14613281 146.81007812 -100.27664062 146.4053125 -101.44140625 145.98828125 C-110.61346688 143.05728665 -119.92541902 141.99301335 -129.46166992 140.84814453 C-141.38791645 139.3458399 -151.46485463 137.15191209 -159.359375 127.375 C-164.30256318 119.9094812 -165.69386466 112.20364955 -164.75390625 103.36328125 C-162.40739499 93.0358215 -156.96420356 86.03176787 -148.13671875 80.37109375 C-141.35544234 77.50294733 -134.76497793 77.0853535 -127.50390625 77.61328125 C-126.68559326 77.66411865 -125.86728027 77.71495605 -125.02416992 77.76733398 C-118.19565806 78.23344629 -111.48651151 79.1182932 -104.75390625 80.36328125 C-104.75390625 79.70328125 -104.75390625 79.04328125 -104.75390625 78.36328125 C-105.28757813 78.21632813 -105.82125 78.069375 -106.37109375 77.91796875 C-116.34093984 74.9166656 -124.37354015 70.50277731 -129.75390625 61.36328125 C-134.3972837 52.39675927 -134.51767957 43.95445806 -131.75390625 34.36328125 C-128.88423345 28.4640158 -125.03167495 24.18124158 -119.75390625 20.36328125 C-118.60921875 19.52796875 -118.60921875 19.52796875 -117.44140625 18.67578125 C-108.34598352 14.23383061 -99.22783371 14.38890868 -89.75390625 17.36328125 C-73.63469046 22.96431809 -59.1925338 31.37824599 -44.75390625 40.36328125 C-44.62731828 37.530697 -44.62731828 37.530697 -45.234375 35.52734375 C-47.24326851 27.15947152 -46.05925716 18.75252115 -41.75390625 11.36328125 C-31.91411764 -2.46031558 -15.69127225 -6.79675429 0 0 Z " fill="#F17180" transform="translate(232.75390625,2.63671875)"/>
<path d="M0 0 C5.94134315 3.34440123 10.52374638 8.57123915 12.6875 15.0625 C12.75552967 16.79045352 12.77245645 18.52085365 12.75 20.25 C12.74097656 21.15105469 12.73195313 22.05210937 12.72265625 22.98046875 C12.70525391 24.01107422 12.70525391 24.01107422 12.6875 25.0625 C13.986875 25.145 15.28625 25.2275 16.625 25.3125 C26.69228519 26.48017885 33.55439658 31.51824994 40.296875 38.80078125 C44.92332383 44.86974643 44.57827401 51.74787498 43.6875 59.0625 C41.91978025 66.20315741 36.48042522 70.88232516 30.6875 75.0625 C20.65488166 80.70483155 8.68165032 81.76441765 -2.5234375 79.37890625 C-8.59758108 77.32867011 -13.46640418 74.22819841 -18.3125 70.0625 C-17.96316406 70.89394531 -17.61382812 71.72539062 -17.25390625 72.58203125 C-16.79886719 73.66871094 -16.34382813 74.75539063 -15.875 75.875 C-15.42253906 76.95394531 -14.97007812 78.03289062 -14.50390625 79.14453125 C-12.63031003 83.73330624 -11.88295421 87.0797688 -12.3125 92.0625 C-14.44929285 95.45189556 -15.4899767 96.78832557 -19.3125 98.0625 C-21.01266844 98.14428114 -22.71586297 98.16999501 -24.41796875 98.16015625 C-25.40087891 98.15693359 -26.38378906 98.15371094 -27.39648438 98.15039062 C-28.42064453 98.14201172 -29.44480469 98.13363281 -30.5 98.125 C-31.53576172 98.12048828 -32.57152344 98.11597656 -33.63867188 98.11132812 C-36.19667266 98.0995401 -38.75455733 98.08308515 -41.3125 98.0625 C-41.53164063 99.11308594 -41.75078125 100.16367187 -41.9765625 101.24609375 C-44.11145727 110.89968093 -46.61654825 119.28422271 -54.3125 126.0625 C-54.9725 126.0625 -55.6325 126.0625 -56.3125 126.0625 C-51.69116651 141.50195507 -45.75641837 153.96251261 -35.87890625 166.85546875 C-32.55983271 171.53196888 -32.85511516 176.54799227 -33.3125 182.0625 C-35.37374486 188.36748428 -40.10314141 192.25209259 -45.75 195.4375 C-51.28543137 196.78760521 -55.42760175 196.91013039 -60.375 194.0625 C-69.20833395 187.85854366 -74.98479363 178.26819673 -80.3125 169.0625 C-80.3125 168.4025 -80.3125 167.7425 -80.3125 167.0625 C-80.9725 167.0625 -81.6325 167.0625 -82.3125 167.0625 C-82.56773437 167.76890625 -82.82296875 168.4753125 -83.0859375 169.203125 C-87.21846339 178.83691146 -94.61872949 189.06474623 -103.25 195.125 C-108.5845723 196.75803234 -113.22812254 196.79816263 -118.5 194.9375 C-123.37959752 191.68443499 -127.96556639 187.98900788 -129.3125 182.0625 C-130.60610712 171.99717336 -126.64109376 166.26733177 -120.9375 158.375 C-113.88982218 148.45604603 -109.43805154 137.74934488 -106.3125 126.0625 C-107.034375 125.44375 -107.75625 124.825 -108.5 124.1875 C-114.91715677 117.63499614 -116.88239492 110.27121466 -116.98158264 101.29171753 C-116.96832443 100.09974762 -116.95506622 98.90777771 -116.94140625 97.6796875 C-116.94381821 96.42543976 -116.94623016 95.17119202 -116.94871521 93.87893677 C-116.94749243 90.57067123 -116.92259958 87.26362143 -116.88897705 83.95556641 C-116.8703509 81.26624283 -116.88513157 78.57752587 -116.9000864 75.8882122 C-116.91326195 72.65195025 -116.89492435 69.41591674 -116.87890625 66.1796875 C-116.88386612 64.98366913 -116.88882599 63.78765076 -116.89393616 62.5553894 C-116.78403271 54.72488216 -115.81888919 49.2227613 -110.63671875 43.07421875 C-110.09660156 42.63722656 -109.55648438 42.20023437 -109 41.75 C-108.46761719 41.30011719 -107.93523437 40.85023438 -107.38671875 40.38671875 C-99.68649104 35.47075417 -92.8866677 35.55510771 -83.875 35.625 C-83.20398254 35.62804138 -82.53296509 35.63108276 -81.84161377 35.63421631 C-61.03383393 35.77413294 -43.3846198 41.0344821 -28.25 56 C-27.610625 56.680625 -26.97125 57.36125 -26.3125 58.0625 C-26.28671875 57.2890625 -26.2609375 56.515625 -26.234375 55.71875 C-25.71231337 46.13179998 -24.13117353 40.44242828 -17.0625 33.8125 C-12.47714344 29.96866975 -7.51376578 26.0625 -1.3125 26.0625 C-1.73438459 24.2463018 -2.17549165 22.43455927 -2.625 20.625 C-2.86863281 19.61566406 -3.11226563 18.60632813 -3.36328125 17.56640625 C-3.67652344 16.74011719 -3.98976563 15.91382813 -4.3125 15.0625 C-7.95032632 13.84989123 -10.48985999 13.66705448 -14.3125 14.0625 C-18.93030455 17.44889 -19.91280783 20.66368733 -21.3125 26.0625 C-22.5 28 -22.5 28 -24.3125 29.0625 C-30.4540349 29.7205216 -30.4540349 29.7205216 -32.96875 27.79296875 C-35.49257564 24.54280957 -35.60303208 21.07431529 -35.3125 17.0625 C-33.08859866 9.72027295 -28.65820906 4.2929727 -22.3125 0.0625 C-15.22319878 -3.37228379 -7.16182348 -3.17573212 0 0 Z " fill="#F6D88C" transform="translate(385.3125,220.9375)"/>
<path d="M0 0 C5.64046864 1.83643165 5.64046864 1.83643165 8.3112793 3.05151367 C13.58138115 4.9106207 19.28190154 4.32667375 24.8125 4.3125 C26.68131836 4.33666992 26.68131836 4.33666992 28.58789062 4.36132812 C35.51098461 4.36500085 40.68656913 3.8317045 47 1 C47.99 1 48.98 1 50 1 C50.1952124 1.53254395 50.3904248 2.06508789 50.59155273 2.61376953 C54.9437519 14.34161502 59.7170977 24.81780898 67 35 C67.54269531 35.76054687 68.08539063 36.52109375 68.64453125 37.3046875 C69.09183594 37.92601562 69.53914063 38.54734375 70 39.1875 C73.58821805 44.23343163 73.496882 49.00929057 73 55 C70.93875514 61.30498428 66.20935859 65.18959259 60.5625 68.375 C55.02706863 69.72510521 50.88489825 69.84763039 45.9375 67 C37.10416605 60.79604366 31.32770637 51.20569673 26 42 C26 41.34 26 40.68 26 40 C25.34 40 24.68 40 24 40 C23.61714844 41.05960937 23.61714844 41.05960937 23.2265625 42.140625 C19.09403661 51.77441146 11.69377051 62.00224623 3.0625 68.0625 C-2.2720723 69.69553234 -6.91562254 69.73566263 -12.1875 67.875 C-17.06709752 64.62193499 -21.65306639 60.92650788 -23 55 C-24.29360712 44.93467336 -20.32859376 39.20483177 -14.625 31.3125 C-7.82685828 21.75955575 -3.30423348 11.20566138 0 0 Z " fill="#F17381" transform="translate(279,348)"/>
<path d="M0 0 C0.67404284 2.56076097 1.339414 5.12326583 2 7.6875 C2.19078125 8.40873047 2.3815625 9.12996094 2.578125 9.87304688 C2.75859375 10.57880859 2.9390625 11.28457031 3.125 12.01171875 C3.29257812 12.65584717 3.46015625 13.29997559 3.6328125 13.96362305 C4.06113004 16.33901972 4.05852411 18.59136706 4 21 C3.06019287 21.01458252 2.12038574 21.02916504 1.15209961 21.04418945 C-46.06541479 21.83323877 -97.53558834 28.72529576 -135.04541016 60.74609375 C-140.12100239 65.04982173 -140.12100239 65.04982173 -144.859375 64.78125 C-146.16771729 64.39070501 -147.46512008 63.96191832 -148.75 63.5 C-150.14194595 63.07133166 -151.53519895 62.64688591 -152.9296875 62.2265625 C-153.95400879 61.90413574 -153.95400879 61.90413574 -154.99902344 61.57519531 C-158.84040497 60.47096216 -162.78929585 60.01995778 -166.7421875 59.4921875 C-169 59 -169 59 -171 57 C-157.00899478 42.00963727 -139.05090562 30.47886418 -121 21 C-120.34580078 20.65582031 -119.69160156 20.31164062 -119.01757812 19.95703125 C-84.56699298 2.134231 -38.48183369 -8.65659397 0 0 Z " fill="#EA6376" transform="translate(279,85)"/>
<path d="M0 0 C6.27335034 3.52065607 10.43529882 8.06879595 12.6875 14.9375 C12.98828125 17.7265625 12.98828125 17.7265625 13 20.5625 C13.01675781 21.50351563 13.03351563 22.44453125 13.05078125 23.4140625 C12.6875 25.9375 12.6875 25.9375 11.3828125 27.74609375 C8.50386207 29.76931928 6.07622917 29.35365972 2.6875 28.9375 C-1.45404561 26.29151252 -2.29333384 22.48742564 -3.50390625 17.9609375 C-4.23331673 15.58093105 -4.23331673 15.58093105 -7.3125 13.9375 C-12.3955999 13.37223352 -12.3955999 13.37223352 -16.6875 15.8125 C-19.39711644 19.35584457 -19.40862002 21.51597924 -19.3125 25.9375 C-18.6834375 26.14503906 -18.054375 26.35257813 -17.40625 26.56640625 C-8.37935155 29.8155459 -1.55313274 34.6876753 2.83984375 43.4140625 C4.89554867 49.5338108 4.78977342 56.24778174 2.1875 62.1875 C-2.93694002 70.84852538 -10.20585682 75.91901675 -19.57421875 79.015625 C-29.87490118 81.55581419 -40.88081738 80.9144791 -50.3125 75.9375 C-57.44505981 71.57462837 -63.12503275 66.15938393 -65.8046875 58.07421875 C-67.32687444 51.66932448 -66.77148015 46.50076981 -63.49609375 40.77734375 C-58.55109691 33.09056648 -51.90644209 27.94304164 -42.9375 25.5625 C-39.3125 24.9375 -39.3125 24.9375 -35.3125 24.9375 C-35.415625 23.82375 -35.51875 22.71 -35.625 21.5625 C-35.60258887 15.24256119 -32.80866033 9.76569116 -28.66796875 5.07421875 C-20.40982125 -2.43827209 -10.29947873 -4.69991273 0 0 Z " fill="#F17382" transform="translate(236.3125,221.0625)"/>
<path d="M0 0 C5.94134315 3.34440123 10.52374638 8.57123915 12.6875 15.0625 C12.75552967 16.79045352 12.77245645 18.52085365 12.75 20.25 C12.74097656 21.15105469 12.73195313 22.05210937 12.72265625 22.98046875 C12.71105469 23.66753906 12.69945312 24.35460937 12.6875 25.0625 C13.986875 25.145 15.28625 25.2275 16.625 25.3125 C26.69228519 26.48017885 33.55439658 31.51824994 40.296875 38.80078125 C44.92332383 44.86974643 44.57827401 51.74787498 43.6875 59.0625 C41.91978025 66.20315741 36.48042522 70.88232516 30.6875 75.0625 C20.65488166 80.70483155 8.68165032 81.76441765 -2.5234375 79.37890625 C-11.35841677 76.3967914 -18.79410233 71.36757101 -23.3125 63.0625 C-25.9701303 56.35514734 -26.7835631 48.69758501 -23.875 41.9375 C-19.5453275 34.37969712 -12.2073481 29.3293337 -4.3125 26.0625 C-3.3225 26.0625 -2.3325 26.0625 -1.3125 26.0625 C-1.73438459 24.2463018 -2.17549165 22.43455927 -2.625 20.625 C-2.86863281 19.61566406 -3.11226563 18.60632813 -3.36328125 17.56640625 C-3.67652344 16.74011719 -3.98976563 15.91382813 -4.3125 15.0625 C-7.95032632 13.84989123 -10.48985999 13.66705448 -14.3125 14.0625 C-18.93030455 17.44889 -19.91280783 20.66368733 -21.3125 26.0625 C-22.5 28 -22.5 28 -24.3125 29.0625 C-30.4540349 29.7205216 -30.4540349 29.7205216 -32.96875 27.79296875 C-35.49257564 24.54280957 -35.60303208 21.07431529 -35.3125 17.0625 C-33.08859866 9.72027295 -28.65820906 4.2929727 -22.3125 0.0625 C-15.22319878 -3.37228379 -7.16182348 -3.17573212 0 0 Z " fill="#F17281" transform="translate(385.3125,220.9375)"/>
<path d="M0 0 C24.09 0 48.18 0 73 0 C71.83885637 11.61143628 69.97469041 20.08635673 61 28 C60.34 28 59.68 28 59 28 C59 28.66 59 29.32 59 30 C50.5598606 33.77548312 43.12641089 34.64652985 33.9375 34.5625 C32.13442383 34.59827148 32.13442383 34.59827148 30.29492188 34.63476562 C20.95993047 34.61948741 14.28083007 32.6293994 7.125 26.5625 C-0.79503313 17.01187182 0 13.90884428 0 0 Z " fill="#E3C680" transform="translate(270,319)"/>
<path d="M0 0 C5.94134315 3.34440123 10.52374638 8.57123915 12.6875 15.0625 C13.15391558 19.64254808 13.52337281 23.65823368 11.125 27.6875 C7.66642132 29.6384931 5.58871904 29.75914626 1.6875 29.0625 C-1.26471161 25.87091988 -2.44675256 22.9046559 -3.375 18.75 C-3.684375 17.533125 -3.99375 16.31625 -4.3125 15.0625 C-7.95032632 13.84989123 -10.48985999 13.66705448 -14.3125 14.0625 C-18.93030455 17.44889 -19.91280783 20.66368733 -21.3125 26.0625 C-22.5 28 -22.5 28 -24.3125 29.0625 C-30.4540349 29.7205216 -30.4540349 29.7205216 -32.96875 27.79296875 C-35.49257564 24.54280957 -35.60303208 21.07431529 -35.3125 17.0625 C-33.08859866 9.72027295 -28.65820906 4.2929727 -22.3125 0.0625 C-15.22319878 -3.37228379 -7.16182348 -3.17573212 0 0 Z " fill="#494F5B" transform="translate(385.3125,220.9375)"/>
<path d="M0 0 C6.27335034 3.52065607 10.43529882 8.06879595 12.6875 14.9375 C12.98828125 17.7265625 12.98828125 17.7265625 13 20.5625 C13.01675781 21.50351563 13.03351563 22.44453125 13.05078125 23.4140625 C12.6875 25.9375 12.6875 25.9375 11.3828125 27.74609375 C8.50386207 29.76931928 6.07622917 29.35365972 2.6875 28.9375 C-1.45404561 26.29151252 -2.29333384 22.48742564 -3.50390625 17.9609375 C-4.23331673 15.58093105 -4.23331673 15.58093105 -7.3125 13.9375 C-11.03536827 13.53136892 -13.35836915 13.3279164 -16.5625 15.375 C-18.64918344 18.43050076 -19.55306913 21.35875847 -20.50390625 24.9140625 C-21.3125 26.9375 -21.3125 26.9375 -24.3125 28.9375 C-30.54354181 29.49384302 -30.54354181 29.49384302 -33.0078125 27.7109375 C-35.55500743 24.24858272 -34.73911242 20.03297927 -34.3125 15.9375 C-33.02824436 8.88668472 -29.0460254 4.97338939 -23.3125 0.9375 C-15.86299739 -3.41975624 -7.79934226 -3.55903721 0 0 Z " fill="#484F5B" transform="translate(236.3125,221.0625)"/>
<path d="M0 0 C5.64046864 1.83643165 5.64046864 1.83643165 8.3112793 3.05151367 C13.58138115 4.9106207 19.28190154 4.32667375 24.8125 4.3125 C26.68131836 4.33666992 26.68131836 4.33666992 28.58789062 4.36132812 C35.51098461 4.36500085 40.68656913 3.8317045 47 1 C47.99 1 48.98 1 50 1 C50.50833591 2.24663331 51.00631145 3.49749387 51.5 4.75 C51.7784375 5.44609375 52.056875 6.1421875 52.34375 6.859375 C53 9 53 9 53 13 C51.44148245 13.82011312 49.87798284 14.63076213 48.3125 15.4375 C47.00732422 16.11619141 47.00732422 16.11619141 45.67578125 16.80859375 C39.15848424 19.71045592 32.2520851 19.21881031 25.25 19.25 C23.53683594 19.2809375 23.53683594 19.2809375 21.7890625 19.3125 C12.10089054 19.35704332 4.80626801 17.80466083 -3 12 C-2.68950274 10.56206608 -2.3765224 9.1246682 -2.0625 7.6875 C-1.88847656 6.88699219 -1.71445312 6.08648437 -1.53515625 5.26171875 C-1 3 -1 3 0 0 Z " fill="#D96775" transform="translate(279,348)"/>
</svg>
