<?xml version="1.0" encoding="UTF-8"?>
<svg version="1.1" xmlns="http://www.w3.org/2000/svg" width="512" height="512">
<path d="M0 0 C1.9453125 1.3515625 1.9453125 1.3515625 3.21679688 2.88769531 C5.61489615 4.91862797 7.4340365 4.88348238 10.546875 5.125 C11.66860107 5.22449951 12.79032715 5.32399902 13.94604492 5.42651367 C15.14205322 5.52552979 16.33806152 5.6245459 17.5703125 5.7265625 C49.51971484 8.87033484 74.54499804 22.73677099 95.44824219 47.10351562 C112.92874341 68.41284602 124.20187283 94.5446777 135.94683838 119.25317383 C137.42349969 122.35651853 138.90899167 125.45558263 140.39453125 128.5546875 C142.19598165 132.3136467 143.9915113 136.0752974 145.78125 139.83984375 C147.78313692 144.03772369 149.85206884 148.19852884 151.9453125 152.3515625 C153.22664062 152.24457031 154.50796875 152.13757813 155.828125 152.02734375 C167.36276994 151.18108224 179.19995538 150.36305663 189.7578125 156.1015625 C191.9453125 158.3515625 191.9453125 158.3515625 193.0078125 161.7890625 C192.93703962 165.8231166 192.76221397 167.44930038 189.9453125 170.3515625 C183.8548131 172.09170518 179.46588621 170.86951415 173.50390625 169.05859375 C169.75487824 168.0226028 166.47480252 167.58681749 162.9453125 169.3515625 C170.34376202 178.84875587 178.16244163 186.35211363 187.9453125 193.3515625 C188.51701172 193.77002441 189.08871094 194.18848633 189.67773438 194.61962891 C213.90801704 212.24227774 242.71847709 222.40202337 271.3359375 230.39697266 C272.54636719 230.74163574 273.75679688 231.08629883 275.00390625 231.44140625 C276.07954834 231.73909912 277.15519043 232.03679199 278.26342773 232.34350586 C280.94686553 233.35214625 282.27825796 234.04209773 283.9453125 236.3515625 C284.1328125 239.5390625 284.1328125 239.5390625 283.9453125 242.3515625 C284.82574219 242.48433594 285.70617187 242.61710938 286.61328125 242.75390625 C287.77472656 242.93050781 288.93617188 243.10710937 290.1328125 243.2890625 C291.28136719 243.46308594 292.42992187 243.63710938 293.61328125 243.81640625 C296.40856462 244.26535563 299.17464836 244.77238412 301.9453125 245.3515625 C302.40679687 244.63613281 302.86828125 243.92070312 303.34375 243.18359375 C313.13334691 228.22833997 323.94585795 213.64461986 337.9453125 202.3515625 C338.85410156 201.60519531 339.76289063 200.85882813 340.69921875 200.08984375 C358.27334077 186.07893546 390.34905833 163.06805403 413.9453125 165.3515625 C416.90703054 167.52174174 417.8320029 168.74516077 418.51171875 172.3828125 C418.49158121 190.26494708 409.18575957 203.01622824 396.9453125 215.3515625 C395.4603125 216.3415625 395.4603125 216.3415625 393.9453125 217.3515625 C393.50699449 220.3298433 393.50699449 220.3298433 393.5078125 223.7890625 C392.87923206 235.61121006 388.63730129 246.09804199 379.9453125 254.3515625 C380.76773437 254.75246094 381.59015625 255.15335937 382.4375 255.56640625 C394.47767233 261.69771802 406.86226378 270.39106617 411.5078125 283.6640625 C412.8836992 286.63737698 413.64867621 287.2392996 416.7734375 288.421875 C419.18863466 289.02296667 421.6068542 289.61199373 424.02734375 290.19140625 C436.6957789 293.57239156 447.66247243 303.5232235 456.9453125 312.3515625 C458.51231692 315.48557135 458.79695811 318.98311345 457.9453125 322.3515625 C445.57325805 334.40926348 424.62056468 334.8567284 408.47436523 334.76879883 C371.68263561 333.99287053 339.34579507 313.75204507 313.9453125 288.3515625 C308.94376543 288.7156598 304.18561435 291.14426718 299.5703125 292.9765625 C271.99943147 303.62763928 243.34274588 310.24026991 213.9453125 313.3515625 C213.07237549 313.4458252 212.19943848 313.54008789 211.30004883 313.63720703 C172.53569564 317.36397175 133.3482555 313.47209885 96.9453125 299.3515625 C96.8009375 300.0940625 96.6565625 300.8365625 96.5078125 301.6015625 C96.04315453 303.8732237 95.50738839 306.10325892 94.9453125 308.3515625 C94.04080751 312.26452972 93.76229249 316.03033751 93.5703125 320.0390625 C93.20834976 325.20909704 92.74848018 328.54839482 88.9453125 332.3515625 C83.49060979 335.6034045 79.92928971 335.79929892 73.9453125 334.3515625 C68.79864805 331.00798117 65.43790864 326.14659411 61.8203125 321.2890625 C61.16305176 320.40871338 60.50579102 319.52836426 59.82861328 318.62133789 C47.83008086 302.26010057 34.81189468 282.16228026 33.5703125 261.4140625 C32.37733899 253.11797147 25.56852467 248.42726731 19.71337891 243.04443359 C15.70929864 239.21064562 12.12219706 234.88996901 8.9453125 230.3515625 C8.9453125 229.6915625 8.9453125 229.0315625 8.9453125 228.3515625 C8.3467041 228.56304932 7.7480957 228.77453613 7.13134766 228.99243164 C0.74268608 231.09951489 -4.9704525 231.86391562 -11.6796875 231.7890625 C-13.11103027 231.77879028 -13.11103027 231.77879028 -14.57128906 231.76831055 C-26.5564544 231.50012088 -38.93625984 229.16559492 -49.0546875 222.3515625 C-53.88487845 217.28575248 -54.35447132 213.85748185 -54.265625 207.04296875 C-53.88279579 202.15835163 -51.93963295 200.15297328 -48.40625 196.953125 C-45.05089398 194.19161937 -41.48000447 192.41753859 -37.5546875 190.6015625 C-31.17595837 187.55002378 -25.25260271 184.10624502 -19.39648438 180.14550781 C-15.23885702 177.3515625 -15.23885702 177.3515625 -13.0546875 177.3515625 C-13.4878125 176.30355469 -13.9209375 175.25554687 -14.3671875 174.17578125 C-14.92996085 172.79698654 -15.49244585 171.41807411 -16.0546875 170.0390625 C-16.34085938 169.34876953 -16.62703125 168.65847656 -16.921875 167.94726562 C-18.14379494 164.93610576 -19.0546875 162.63269266 -19.0546875 159.3515625 C-20.1271875 159.2896875 -21.1996875 159.2278125 -22.3046875 159.1640625 C-26.0546875 158.3515625 -26.0546875 158.3515625 -28.09765625 156.5234375 C-30.95899688 151.8858954 -31.93134649 147.07155346 -33.1171875 141.7890625 C-33.37395264 140.68095215 -33.63071777 139.5728418 -33.89526367 138.43115234 C-36.14277117 128.48045386 -37.88191423 118.48475397 -39.0546875 108.3515625 C-39.1489502 107.59665527 -39.24321289 106.84174805 -39.34033203 106.06396484 C-40.40662257 96.32238026 -40.2975474 86.51416439 -40.3046875 76.7265625 C-40.30569458 75.77058167 -40.30670166 74.81460083 -40.30773926 73.82965088 C-40.26620498 15.48499013 -40.26620498 15.48499013 -25.0546875 -0.6484375 C-16.57259919 -6.58589932 -8.5612506 -5.00173422 0 0 Z " fill="#010102" transform="translate(54.0546875,90.6484375)"/>
<path d="M0 0 C26.11737325 1.83279812 46.97734375 14.65749337 64.3125 33.5625 C82.36880589 54.68357765 93.99304008 81.04461674 105.5 106.0625 C124.32841711 146.93880267 144.54482857 177.31315449 185 199 C185.58088379 199.31501465 186.16176758 199.6300293 186.76025391 199.95458984 C204.21645455 209.34675889 222.96117125 216.55145597 242 222 C243.29096539 222.39256087 244.58132604 222.7871156 245.87109375 223.18359375 C253.78434014 225.69541075 253.78434014 225.69541075 262 226 C262.680625 225.13375 263.36125 224.2675 264.0625 223.375 C267 221 267 221 269.9921875 221.04296875 C275.46088417 221.86761349 280.88281046 222.8524096 286 225 C287.75 228.5625 287.75 228.5625 289 232 C291.84083641 233.42041821 293.85477278 233.31452272 297 233 C300.10828612 230.34792026 302.10636462 227.42661339 304.1875 223.9375 C321.59725275 196.17004625 352.30480738 172.05576932 384 163 C379.19485823 172.61028353 371.58347712 181.56239216 363 188 C362.34 188 361.68 188 361 188 C361.06960938 189.23234375 361.13921875 190.4646875 361.2109375 191.734375 C361.68156959 203.56843697 360.78779454 211.97837329 352.984375 221.4453125 C349.00340023 225.66972817 344.7882624 228.83266414 339.9375 232 C336.12751517 234.52174911 336.12751517 234.52174911 334.3046875 238.5 C334.31179132 240.77322325 334.49301546 242.78770381 335 245 C338.43445407 246.14481802 341.25594234 246.1446636 344.875 246.25 C356.31833827 246.87133263 365.55875054 250.44214194 373.84765625 258.54296875 C378.95746435 264.37612537 382.23393065 271.04825073 385.140625 278.1875 C385.96556071 280.18955235 385.96556071 280.18955235 388 282 C390.26866501 282.01261445 390.26866501 282.01261445 392.875 281.75 C403.02173032 281.56382146 411.4460916 287.73469951 419 294 C408.56595525 300.95602983 388.62681458 299.15424562 376.8125 296.875 C348.84028111 289.88194528 325.10426907 273.73324782 305.21484375 253.1875 C302.54069813 250.54636853 301.70513796 250.067156 297.96484375 249.7109375 C292.96162609 250.07570411 289.13484067 251.66012211 284.5625 253.625 C282.7699685 254.36564247 280.97699445 255.10521471 279.18359375 255.84375 C278.30171387 256.21113281 277.41983398 256.57851563 276.51123047 256.95703125 C266.68968153 261.0361346 256.79081145 264.508057 246.5625 267.4375 C245.65064941 267.70900879 244.73879883 267.98051758 243.79931641 268.26025391 C233.57331647 271.07806007 225.97847377 269.04312757 216.25 265.3125 C215.22575928 264.92312256 214.20151855 264.53374512 213.14624023 264.13256836 C182.35293907 252.10447566 153.74208763 235.74239513 128 215 C127.21737793 214.37399902 127.21737793 214.37399902 126.41894531 213.73535156 C110.51282136 200.89968281 95.20742379 186.2486951 83.20947266 169.65820312 C81.94244835 167.92109591 80.63765463 166.21786053 79.32421875 164.515625 C68.09933759 149.82040298 58.76450817 133.77010097 51 117 C50.71930664 116.39462402 50.43861328 115.78924805 50.14941406 115.16552734 C45.36124578 104.71220589 41.72822536 94.3006949 39.70947266 82.97973633 C34.683441 55.17098625 19.81919068 30.5298737 4.43530273 7.22216797 C2.90076372 4.84636016 1.44303956 2.43226954 0 0 Z " fill="#8694DC" transform="translate(71,112)"/>
<path d="M0 0 C5.55865217 0.63527453 8.33677173 3.39741026 12.25 7.16796875 C14 10 14 10 13.62109375 13.50390625 C13.24852781 14.86298392 12.85254353 16.21578683 12.4375 17.5625 C8.07467194 33.31205257 6.52336608 48.94838424 6.71875 65.25683594 C6.75024261 67.8953265 6.75978295 70.53321367 6.765625 73.171875 C6.82676429 86.92773307 7.46950911 100.43009337 9.875 114 C10.11669922 115.47533203 10.11669922 115.47533203 10.36328125 116.98046875 C11.24677213 122.05540474 12.08465786 126.64134808 15 131 C18.9121197 132.04788921 21.14956886 132.28347705 25 131 C26.25182376 124.28567257 25.55056213 119.48578129 23.86279297 112.91357422 C20.75252354 99.66896413 20.6498003 85.68361261 20.68432617 72.14819336 C20.68749513 69.56646725 20.66385451 66.98588377 20.63867188 64.40429688 C20.59553137 52.3629717 21.90622151 40.85048522 24 29 C27 29 27 29 28.58154297 30.57861328 C41.2136505 47.63065847 41.2136505 47.63065847 39.83349609 57.82397461 C39.29551775 60.52268977 38.71537457 63.20986886 38.12890625 65.8984375 C36.59593765 73.10375175 36.67907625 80.22302127 36.75 87.5625 C36.75427002 88.79863037 36.75854004 90.03476074 36.76293945 91.30834961 C36.87092609 102.86913515 37.5711126 114.20938558 39.8125 125.5625 C39.98700684 126.46073486 40.16151367 127.35896973 40.34130859 128.28442383 C42.27316891 140.05083732 42.27316891 140.05083732 48 150 C50.21072977 150.24253813 50.21072977 150.24253813 52.625 150.125 C53.44226563 150.10695312 54.25953125 150.08890625 55.1015625 150.0703125 C55.72804688 150.04710937 56.35453125 150.02390625 57 150 C59.2934807 143.1195579 57.39084972 136.82139945 55.625 130.0625 C51.07870429 111.57912098 50.73971784 93.9965935 51 75 C53.52472795 77.52472795 53.86096414 79.43327456 54.8125 82.875 C55.163125 84.13699219 55.51375 85.39898437 55.875 86.69921875 C56.67274951 89.69147674 57.41257941 92.6933693 58.125 95.70703125 C67.32500592 134.51257922 86.71472944 169.15133551 113 199 C113.61230469 199.7115625 114.22460938 200.423125 114.85546875 201.15625 C116.55132009 203.12198742 118.27005148 205.06419121 120 207 C120.85464844 207.9590625 121.70929688 208.918125 122.58984375 209.90625 C127.06120553 214.88254319 131.53754784 219.75178595 136.6796875 224.05078125 C138.55117006 225.62295263 140.37688903 227.22332024 142.1953125 228.85546875 C169.05787247 252.83127309 200.73802527 271.36804314 234 285 C234 285.33 234 285.66 234 286 C197.24754346 291.24366259 159.64596492 288.19543298 124.5625 275.9375 C123.89976074 275.71666748 123.23702148 275.49583496 122.55419922 275.26831055 C120.75390625 274.58984375 120.75390625 274.58984375 118 273 C116.38681518 269.17111555 117.31409601 265.99573599 118 262 C119.0063881 245.7544859 119.88145258 225.35328872 109 212 C108.32324219 211.10152344 107.64648438 210.20304688 106.94921875 209.27734375 C104.84103892 206.4928902 102.70405965 203.73576211 100.55078125 200.98632812 C98.80675227 198.7524774 97.07481693 196.509534 95.34375 194.265625 C94.08346406 192.6353156 92.82304826 191.00510658 91.5625 189.375 C90.95929932 188.5927002 90.35609863 187.81040039 89.73461914 187.00439453 C89.16348389 186.26817871 88.59234863 185.53196289 88.00390625 184.7734375 C87.49674072 184.11778809 86.9895752 183.46213867 86.46704102 182.78662109 C83.35800645 178.89001426 83.35800645 178.89001426 78.6875 177.375 C74.57943805 178.07128169 73.07742502 179.1539456 70.58984375 182.453125 C62.33994361 195.66918125 56.72668715 210.56759148 51 225 C46.72909709 221.63183896 43.19777653 218.13486179 39.875 213.8125 C39.40835938 213.20937988 38.94171875 212.60625977 38.4609375 211.98486328 C29.39160757 200.09041296 21.49154605 187.62813719 14.56445312 174.37255859 C14.13970703 173.56898926 13.71496094 172.76541992 13.27734375 171.9375 C12.90859131 171.22464844 12.53983887 170.51179687 12.15991211 169.77734375 C10.96589625 167.69296992 10.96589625 167.69296992 8 166 C6.85402344 165.79632813 5.70804688 165.59265625 4.52734375 165.3828125 C1 164 1 164 -0.12841797 162.34277344 C-1.03566669 160.21173452 -1.76220069 158.09028782 -2.4375 155.875 C-2.69208984 155.12089844 -2.94667969 154.36679687 -3.20898438 153.58984375 C-3.83123252 151.73483985 -4.41906529 149.86835412 -5 148 C-3.04992676 145.84851074 -3.04992676 145.84851074 -1.09985352 143.69702148 C0.59494258 141.08203199 0.16910674 138.67371197 -0.34765625 135.7109375 C-1.27186438 131.87021631 -2.34716329 128.07420992 -3.41137695 124.27026367 C-5.74617012 115.64762734 -6.89161474 106.85041465 -8 98 C-8.15879639 96.76685059 -8.15879639 96.76685059 -8.32080078 95.50878906 C-11.85511531 67.17826147 -15.16658281 25.62629509 0 0 Z " fill="#EAF1F2" transform="translate(39,102)"/>
<path d="M0 0 C26.11737325 1.83279812 46.97734375 14.65749337 64.3125 33.5625 C82.36880589 54.68357765 93.99304008 81.04461674 105.5 106.0625 C124.32841711 146.93880267 144.54482857 177.31315449 185 199 C185.58088379 199.31501465 186.16176758 199.6300293 186.76025391 199.95458984 C203.1782214 208.78814585 220.97417256 216.1978909 239 221 C218.76650508 227.7991588 183.54293226 208.83726454 165.5 200 C150.4630225 192.38937058 137.29736921 182.48134008 125 171 C124.1853125 170.25105469 123.370625 169.50210938 122.53125 168.73046875 C106.00708405 152.96453193 94.77536214 131.96309487 83.45336914 112.37475586 C80.27623546 106.88113646 77.06237377 101.41395624 73.77734375 95.984375 C73.25478249 95.11971115 73.25478249 95.11971115 72.72166443 94.23757935 C71.02760338 91.43648826 69.32809971 88.63888684 67.62182617 85.84521484 C66.71460815 84.34788818 66.71460815 84.34788818 65.7890625 82.8203125 C65.24975098 81.93617676 64.71043945 81.05204102 64.15478516 80.14111328 C63 78 63 78 63 76 C62.236875 75.896875 61.47375 75.79375 60.6875 75.6875 C57.6926626 74.9213788 56.87312769 74.39402556 55 72 C54.47265625 69.6796875 54.47265625 69.6796875 54.0625 66.875 C51.90348099 57.51548305 45.73809667 50.47425673 40 43 C39.06222539 41.7528106 38.12471143 40.50542516 37.1875 39.2578125 C28.48110379 27.80832672 18.66318111 15.56480282 7 7 C6.01 7 5.02 7 4 7 C2.02 3.535 2.02 3.535 0 0 Z " fill="#6B7ED6" transform="translate(71,112)"/>
<path d="M0 0 C3.38155128 1.41957007 5.10665911 3.05001987 7.3125 5.95703125 C7.91320312 6.74013672 8.51390625 7.52324219 9.1328125 8.33007812 C9.74898437 9.14927734 10.36515625 9.96847656 11 10.8125 C12.2289959 12.42330739 13.45815813 14.03398788 14.6875 15.64453125 C15.26274414 16.40830078 15.83798828 17.17207031 16.43066406 17.95898438 C17.66493256 19.56422468 18.96907425 21.11575385 20.296875 22.64453125 C28.42245685 33.88243459 27.45337337 53.26495869 25.68652344 66.31542969 C24.15101629 74.81766234 21.10680571 83.02068636 18.01904297 91.06787109 C16.2646959 95.73660581 15.46049853 100.02883515 15 105 C-0.34244785 91.09590664 -13.43090644 66.73294664 -15.26245117 46.03393555 C-15.52370496 37.37004696 -13.63577447 30.75536168 -10.3125 22.8125 C-9.87744141 21.71486328 -9.44238281 20.61722656 -8.99414062 19.48632812 C-6.31410586 12.81998979 -3.32502416 6.3681149 0 0 Z " fill="#6A7DD4" transform="translate(117,300)"/>
<path d="M0 0 C-13.17850134 18.49672903 -13.17850134 18.49672903 -21 24 C-21.66 24 -22.32 24 -23 24 C-22.89558594 25.84851563 -22.89558594 25.84851563 -22.7890625 27.734375 C-22.31843041 39.56843697 -23.21220546 47.97837329 -31.015625 57.4453125 C-34.99659977 61.66972817 -39.2117376 64.83266414 -44.0625 68 C-47.87248483 70.52174911 -47.87248483 70.52174911 -49.6953125 74.5 C-49.68820868 76.77322325 -49.50698454 78.78770381 -49 81 C-45.56554593 82.14481802 -42.74405766 82.1446636 -39.125 82.25 C-27.68166173 82.87133263 -18.44124946 86.44214194 -10.15234375 94.54296875 C-5.04253565 100.37612537 -1.76606935 107.04825073 1.140625 114.1875 C1.96556071 116.18955235 1.96556071 116.18955235 4 118 C6.26866501 118.01261445 6.26866501 118.01261445 8.875 117.75 C19.02173032 117.56382146 27.4460916 123.73469951 35 130 C24.69127734 136.87248177 5.04788051 135.1199397 -6.6875 133 C-8.12912537 132.68498626 -9.56898691 132.36016509 -11 132 C-9.68 131.67 -8.36 131.34 -7 131 C-6.9175 129.80375 -6.835 128.6075 -6.75 127.375 C-6.70359375 126.70210938 -6.6571875 126.02921875 -6.609375 125.3359375 C-8.52022066 113.90908043 -24.72047196 103.41628176 -33.578125 96.9921875 C-39.03507647 93.18622454 -44.82573259 89.93384134 -50.70507812 86.828125 C-55.46223667 84.23842922 -58.70259789 82.12592406 -61 77 C-62.35022416 71.34151782 -60.97092461 67.40488768 -58.10546875 62.4609375 C-56.81564337 60.42197619 -55.50872412 58.39375693 -54.1875 56.375 C-48.84403222 47.86564522 -43.92722668 39.33467468 -39.625 30.25 C-38.93893677 28.81406494 -38.93893677 28.81406494 -38.23901367 27.34912109 C-35.91481636 22.52939081 -35.91481636 22.52939081 -34.62963867 17.37988281 C-34 15 -34 15 -32.2409668 13.50195312 C-31.48468994 13.09912109 -30.72841309 12.69628906 -29.94921875 12.28125 C-29.11052246 11.82588867 -28.27182617 11.37052734 -27.40771484 10.90136719 C-26.51004395 10.43891602 -25.61237305 9.97646484 -24.6875 9.5 C-23.78209473 9.01950195 -22.87668945 8.53900391 -21.94384766 8.04394531 C-3.37683319 -1.6884166 -3.37683319 -1.6884166 0 0 Z " fill="#6A7DD4" transform="translate(455,276)"/>
<path d="M0 0 C10.65079679 10.05908586 13.01418013 22.62390562 13.47607422 36.80273438 C13.58063697 48.31744095 12.99029052 62.82729943 7 73 C6.34 73 5.68 73 5 73 C0.66286926 65.33846955 -3.34679825 57.69489275 -6.4375 49.4375 C-6.68387207 48.78394531 -6.93024414 48.13039063 -7.18408203 47.45703125 C-8.55993334 43.65510526 -9.47891049 40.00587562 -10 36 C-10.12503906 35.11183594 -10.25007813 34.22367187 -10.37890625 33.30859375 C-11.08498473 22.26672811 -6.83636797 11.80168939 -2 2 C-1.34 1.34 -0.68 0.68 0 0 Z " fill="#8492DB" transform="translate(112,313)"/>
<path d="M0 0 C3.24360451 1.35420916 4.66940274 2.55399159 6.359375 5.625 C6.94912109 6.68460937 6.94912109 6.68460937 7.55078125 7.765625 C7.94652344 8.50296875 8.34226563 9.2403125 8.75 10 C9.36681641 11.10601562 9.36681641 11.10601562 9.99609375 12.234375 C13 17.70328073 13 17.70328073 13 20 C4.31893597 22.59167688 -4.99650326 21.32675569 -13.625 19.1875 C-14.63675293 18.93963745 -14.63675293 18.93963745 -15.66894531 18.68676758 C-19.41436831 17.68133253 -21.99338421 16.40011872 -25 14 C-24.34926514 13.64695801 -23.69853027 13.29391602 -23.02807617 12.93017578 C-20.08041684 11.32992013 -17.13394736 9.72748599 -14.1875 8.125 C-12.65125977 7.29162109 -12.65125977 7.29162109 -11.08398438 6.44140625 C-10.10107422 5.90644531 -9.11816406 5.37148438 -8.10546875 4.8203125 C-7.19949951 4.32805176 -6.29353027 3.83579102 -5.36010742 3.32861328 C-3.52737382 2.29688304 -1.74995424 1.16663616 0 0 Z " fill="#828FD6" transform="translate(40,286)"/>
<path d="M0 0 C4.40847964 1.30621619 4.40847964 1.30621619 6.375 4 C7.05812901 8.04753939 6.9737453 11.94308091 6.375 16 C3.93774912 19.06397254 2.59551658 19.76185042 -1.1875 20.5 C-4.39555757 19.84193691 -5.57118749 18.49391519 -7.625 16 C-9.36855021 12.51289957 -9.19469879 8.80454017 -8.625 5 C-5.97395572 0.98326624 -4.85306273 0 0 0 Z " fill="#030406" transform="translate(133.625,168)"/>
<path d="M0 0 C2.04262517 0.28487651 4.08407027 0.57822051 6.125 0.875 C7.26195312 1.03742188 8.39890625 1.19984375 9.5703125 1.3671875 C12.86078915 1.97431417 15.85779103 2.86345633 19 4 C19 4.66 19 5.32 19 6 C11.58165418 6.09377123 4.33763707 6.17402193 -3 5 C-2.01 3.35 -1.02 1.7 0 0 Z " fill="#6F81D7" transform="translate(338,333)"/>
</svg>
